<svg version="1.1" xmlns="http://www.w3.org/2000/svg" xmlns:xlink="http://www.w3.org/1999/xlink" width="1024pt" height="1024pt" viewBox="0,0,256,256"><g fill="#ff0000" fill-rule="nonzero" stroke="none" stroke-width="1" stroke-linecap="butt" stroke-linejoin="miter" stroke-miterlimit="10" stroke-dasharray="" stroke-dashoffset="0" font-family="none" font-weight="none" font-size="none" text-anchor="none" style="mix-blend-mode: normal"><g transform="translate(-0.12512,0.03754) scale(0.25024,0.24998)"><path d="M478.5,0.6c-2.2,0.2 -9.2,0.9 -15.5,1.4c-145.3,13.1 -281.4,91.5 -367.6,212c-48,67 -78.7,143 -90.3,223.5c-4.1,28.1 -4.6,36.4 -4.6,74.5c0,38.1 0.5,46.4 4.6,74.5c27.8,192.1 164.5,353.5 349.9,413.3c33.2,10.7 68.2,18 108,22.4c15.5,1.7 82.5,1.7 98,0c68.7,-7.6 126.9,-24.6 184.3,-53.9c8.8,-4.5 10.5,-5.7 9.3,-6.7c-0.8,-0.6 -38.3,-50.9 -83.3,-111.7l-81.8,-110.5l-102.5,-151.7c-56.4,-83.4 -102.8,-151.6 -103.2,-151.6c-0.4,-0.1 -0.8,67.3 -1,149.6c-0.3,144.1 -0.4,149.9 -2.2,153.3c-2.6,4.9 -4.6,6.9 -8.8,9.1c-3.2,1.6 -6,1.9 -21.1,1.9h-17.3l-4.6,-2.9c-3,-1.9 -5.2,-4.4 -6.7,-7.3l-2.1,-4.5l0.2,-200.5l0.3,-200.6l3.1,-3.9c1.6,-2.1 5,-4.8 7.4,-6.1c4.1,-2 5.7,-2.2 23,-2.2c20.4,0 23.8,0.8 29.1,6.6c1.5,1.6 57,85.2 123.4,185.9c66.4,100.7 157.2,238.2 201.8,305.7l81,122.7l4.1,-2.7c36.3,-23.6 74.7,-57.2 105.1,-92.2c64.7,-74.3 106.4,-164.9 120.4,-261.5c4.1,-28.1 4.6,-36.4 4.6,-74.5c0,-38.1 -0.5,-46.4 -4.6,-74.5c-27.8,-192.1 -164.5,-353.5 -349.9,-413.3c-32.7,-10.6 -67.5,-17.9 -106.5,-22.3c-9.6,-1 -75.7,-2.1 -84,-1.3zM687.9,310c4.8,2.4 8.7,7 10.1,11.8c0.8,2.6 1,58.2 0.8,183.5l-0.3,179.8l-31.7,-48.6l-31.8,-48.6v-130.7c0,-84.5 0.4,-132 1,-134.3c1.6,-5.6 5.1,-10 9.9,-12.6c4.1,-2.1 5.6,-2.3 21.3,-2.3c14.8,0 17.4,0.2 20.7,2z"></path><path d="M784.3,945.1c-3.5,2.2 -4.6,3.7 -1.5,2c2.2,-1.3 5.8,-4 5.2,-4.1c-0.3,0 -2,1 -3.7,2.1zM777.4,949.6c-1.8,1.4 -1.8,1.5 0.4,0.4c1.2,-0.6 2.2,-1.3 2.2,-1.5c0,-0.8 -0.5,-0.6 -2.6,1.1zM772.4,952.6c-1.8,1.4 -1.8,1.5 0.4,0.4c1.2,-0.6 2.2,-1.3 2.2,-1.5c0,-0.8 -0.5,-0.6 -2.6,1.1zM767.4,955.6c-1.8,1.4 -1.8,1.5 0.4,0.4c1.2,-0.6 2.2,-1.3 2.2,-1.5c0,-0.8 -0.5,-0.6 -2.6,1.1zM759.8,959.6c-3.8,2 -3.6,2.8 0.2,0.9c1.7,-0.9 3,-1.8 3,-2c0,-0.7 -0.1,-0.6 -3.2,1.1z"></path></g></g></svg>